name Walk8.mot
datacolumns 19
datarows 12
range 2.95600000 2.96700000
endheader

                time	   L_ground_force_vx	   L_ground_force_vy	   L_ground_force_vz	   L_ground_force_px	   L_ground_force_py	   L_ground_force_pz	   R_ground_force_vx	   R_ground_force_vy	   R_ground_force_vz	   R_ground_force_px	   R_ground_force_py	   R_ground_force_pz	   L_ground_torque_x	   L_ground_torque_y	   L_ground_torque_z	   R_ground_torque_x	   R_ground_torque_y	   R_ground_torque_z	
          2.95600000	          0.00000000	          0.00000000	          0.00000000	          0.00000000	          0.00000000	          0.00000000	          0.00000000	          0.00000000	          0.00000000	          0.00000000	          0.00000000	          0.00000000	          0.00000000	          0.00000000	          0.00000000	          0.00000000	          0.00000000	          0.00000000	
          2.95700000	          0.00000000	          0.00000000	          0.00000000	          0.00000000	          0.00000000	          0.00000000	          0.00000000	          0.00000000	          0.00000000	          0.00000000	          0.00000000	          0.00000000	          0.00000000	          0.00000000	          0.00000000	          0.00000000	          0.00000000	          0.00000000	
          2.95800000	          0.00000000	          0.00000000	          0.00000000	          0.00000000	          0.00000000	          0.00000000	          0.00000000	          0.00000000	          0.00000000	          0.00000000	          0.00000000	          0.00000000	          0.00000000	          0.00000000	          0.00000000	          0.00000000	          0.00000000	          0.00000000	
          2.95900000	          0.00000000	          0.00000000	          0.00000000	          0.00000000	          0.00000000	          0.00000000	          0.00000000	          0.00000000	          0.00000000	          0.00000000	          0.00000000	          0.00000000	          0.00000000	          0.00000000	          0.00000000	          0.00000000	          0.00000000	          0.00000000	
          2.96000000	          0.00000000	          0.00000000	          0.00000000	          0.00000000	          0.00000000	          0.00000000	          0.00000000	          0.00000000	          0.00000000	          0.00000000	          0.00000000	          0.00000000	          0.00000000	          0.00000000	          0.00000000	          0.00000000	          0.00000000	          0.00000000	
          2.96100000	          5.31673076	         13.04136218	          1.39542993	         -0.39005555	          0.00000000	         -0.05980091	          0.00000000	          0.00000000	          0.00000000	          0.00000000	          0.00000000	          0.00000000	          0.00000000	         -0.12595722	          0.00000000	          0.00000000	          0.00000000	          0.00000000	
          2.96200000	          8.12344504	         20.78950744	          2.06019324	         -0.38960951	          0.00000000	         -0.06095925	          0.00000000	          0.00000000	          0.00000000	          0.00000000	          0.00000000	          0.00000000	          0.00000000	         -0.16452173	          0.00000000	          0.00000000	          0.00000000	          0.00000000	
          2.96300000	         11.17312381	         30.24634575	          2.78275623	         -0.38839555	          0.00000000	         -0.06220127	          0.00000000	          0.00000000	          0.00000000	          0.00000000	          0.00000000	          0.00000000	          0.00000000	         -0.18180062	          0.00000000	          0.00000000	          0.00000000	          0.00000000	
          2.96400000	         14.37385365	         41.85189562	          3.58114188	         -0.38659188	          0.00000000	         -0.06370004	          0.00000000	          0.00000000	          0.00000000	          0.00000000	          0.00000000	          0.00000000	          0.00000000	         -0.16778416	          0.00000000	          0.00000000	          0.00000000	          0.00000000	
          2.96500000	         17.73815006	         56.17194447	          4.48430983	         -0.38466971	          0.00000000	         -0.06522694	          0.00000000	          0.00000000	          0.00000000	          0.00000000	          0.00000000	          0.00000000	          0.00000000	         -0.12455357	          0.00000000	          0.00000000	          0.00000000	          0.00000000	
          2.96600000	         21.32828865	         73.48852175	          5.49868275	         -0.38301066	          0.00000000	         -0.06640710	          0.00000000	          0.00000000	          0.00000000	          0.00000000	          0.00000000	          0.00000000	          0.00000000	         -0.06602183	          0.00000000	          0.00000000	          0.00000000	          0.00000000	
          2.96700000	         25.19288215	         93.51879682	          6.59271609	         -0.38170251	          0.00000000	         -0.06709417	          0.00000000	          0.00000000	          0.00000000	          0.00000000	          0.00000000	          0.00000000	          0.00000000	         -0.00828514	          0.00000000	          0.00000000	          0.00000000	          0.00000000	
